#N canvas 504 23 450 300 10;
#X obj 89 18 key;
#X floatatom 89 55 5 0 0 0 - - -;
#X obj 89 90 mtof;
#X obj 82 202 dac~;
#X obj 89 131 phasor~;
#X obj 89 166 *~;
#X obj 260 147 sendOSC;
#X msg 267 112 disconnect;
#X msg 266 87 connect 0.0.0.0 9999;
#X msg 268 40 send /keys \$1;
#X msg 150 162 0;
#X msg 156 196 1;
#X connect 0 0 1 0;
#X connect 1 0 2 0;
#X connect 1 0 9 0;
#X connect 2 0 4 0;
#X connect 4 0 5 0;
#X connect 5 0 3 0;
#X connect 5 0 3 1;
#X connect 7 0 6 0;
#X connect 8 0 6 0;
#X connect 9 0 6 0;
#X connect 10 0 5 1;
#X connect 11 0 5 1;
